<svg id="visual" viewBox="0 0 1399 650" width="1399" height="650" xmlns="http://www.w3.org/2000/svg" xmlns:xlink="http://www.w3.org/1999/xlink" version="1.1"><rect x="0" y="0" width="1399" height="650" fill="#040D12"></rect><path d="M0 449L33.3 429.5C66.7 410 133.3 371 200 359.7C266.7 348.3 333.3 364.7 400 383C466.7 401.3 533.3 421.7 599.8 435.3C666.3 449 732.7 456 799.2 446.5C865.7 437 932.3 411 999 408C1065.7 405 1132.3 425 1199 425.8C1265.7 426.7 1332.3 408.3 1365.7 399.2L1399 390L1399 651L1365.7 651C1332.3 651 1265.7 651 1199 651C1132.3 651 1065.7 651 999 651C932.3 651 865.7 651 799.2 651C732.7 651 666.3 651 599.8 651C533.3 651 466.7 651 400 651C333.3 651 266.7 651 200 651C133.3 651 66.7 651 33.3 651L0 651Z" fill="#183d3d"></path><path d="M0 508L33.3 496.2C66.7 484.3 133.3 460.7 200 457.5C266.7 454.3 333.3 471.7 400 475.3C466.7 479 533.3 469 599.8 457.7C666.3 446.3 732.7 433.7 799.2 432.8C865.7 432 932.3 443 999 452.7C1065.7 462.3 1132.3 470.7 1199 474.3C1265.7 478 1332.3 477 1365.7 476.5L1399 476L1399 651L1365.7 651C1332.3 651 1265.7 651 1199 651C1132.3 651 1065.7 651 999 651C932.3 651 865.7 651 799.2 651C732.7 651 666.3 651 599.8 651C533.3 651 466.7 651 400 651C333.3 651 266.7 651 200 651C133.3 651 66.7 651 33.3 651L0 651Z" fill="#132d31"></path><path d="M0 507L33.3 514C66.7 521 133.3 535 200 533C266.7 531 333.3 513 400 507.7C466.7 502.3 533.3 509.7 599.8 514.5C666.3 519.3 732.7 521.7 799.2 521.3C865.7 521 932.3 518 999 517C1065.7 516 1132.3 517 1199 512.8C1265.7 508.7 1332.3 499.3 1365.7 494.7L1399 490L1399 651L1365.7 651C1332.3 651 1265.7 651 1199 651C1132.3 651 1065.7 651 999 651C932.3 651 865.7 651 799.2 651C732.7 651 666.3 651 599.8 651C533.3 651 466.7 651 400 651C333.3 651 266.7 651 200 651C133.3 651 66.7 651 33.3 651L0 651Z" fill="#0f1d22"></path><path d="M0 544L33.3 543.5C66.7 543 133.3 542 200 549.2C266.7 556.3 333.3 571.7 400 582C466.7 592.3 533.3 597.7 599.8 600.5C666.3 603.3 732.7 603.7 799.2 598C865.7 592.3 932.3 580.7 999 571.3C1065.7 562 1132.3 555 1199 555C1265.7 555 1332.3 562 1365.7 565.5L1399 569L1399 651L1365.7 651C1332.3 651 1265.7 651 1199 651C1132.3 651 1065.7 651 999 651C932.3 651 865.7 651 799.2 651C732.7 651 666.3 651 599.8 651C533.3 651 466.7 651 400 651C333.3 651 266.7 651 200 651C133.3 651 66.7 651 33.3 651L0 651Z" fill="#040d12"></path></svg>