<svg id="visual" viewBox="0 0 1399 650" width="1399" height="650" xmlns="http://www.w3.org/2000/svg" xmlns:xlink="http://www.w3.org/1999/xlink" version="1.1"><rect x="0" y="0" width="1399" height="650" fill="#040D12"></rect><path d="M0 199L33.3 218.5C66.7 238 133.3 277 200 288.3C266.7 299.7 333.3 283.3 400 265C466.7 246.7 533.3 226.3 599.8 212.7C666.3 199 732.7 192 799.2 201.5C865.7 211 932.3 237 999 240C1065.7 243 1132.3 223 1199 222.2C1265.7 221.3 1332.3 239.7 1365.7 248.8L1399 258L1399 0L1365.7 0C1332.3 0 1265.7 0 1199 0C1132.3 0 1065.7 0 999 0C932.3 0 865.7 0 799.2 0C732.7 0 666.3 0 599.8 0C533.3 0 466.7 0 400 0C333.3 0 266.7 0 200 0C133.3 0 66.7 0 33.3 0L0 0Z" fill="#040d12"></path><path d="M0 140L33.3 151.8C66.7 163.7 133.3 187.3 200 190.5C266.7 193.7 333.3 176.3 400 172.7C466.7 169 533.3 179 599.8 190.3C666.3 201.7 732.7 214.3 799.2 215.2C865.7 216 932.3 205 999 195.3C1065.7 185.7 1132.3 177.3 1199 173.7C1265.7 170 1332.3 171 1365.7 171.5L1399 172L1399 0L1365.7 0C1332.3 0 1265.7 0 1199 0C1132.3 0 1065.7 0 999 0C932.3 0 865.7 0 799.2 0C732.7 0 666.3 0 599.8 0C533.3 0 466.7 0 400 0C333.3 0 266.7 0 200 0C133.3 0 66.7 0 33.3 0L0 0Z" fill="#0f1d22"></path><path d="M0 141L33.3 134C66.7 127 133.3 113 200 115C266.7 117 333.3 135 400 140.3C466.7 145.7 533.3 138.3 599.8 133.5C666.3 128.7 732.7 126.3 799.2 126.7C865.7 127 932.3 130 999 131C1065.7 132 1132.3 131 1199 135.2C1265.7 139.3 1332.3 148.7 1365.7 153.3L1399 158L1399 0L1365.7 0C1332.3 0 1265.7 0 1199 0C1132.3 0 1065.7 0 999 0C932.3 0 865.7 0 799.2 0C732.7 0 666.3 0 599.8 0C533.3 0 466.7 0 400 0C333.3 0 266.7 0 200 0C133.3 0 66.7 0 33.3 0L0 0Z" fill="#132d31"></path><path d="M0 104L33.3 104.5C66.7 105 133.3 106 200 98.8C266.7 91.7 333.3 76.3 400 66C466.7 55.7 533.3 50.3 599.8 47.5C666.3 44.7 732.7 44.3 799.2 50C865.7 55.7 932.3 67.3 999 76.7C1065.7 86 1132.3 93 1199 93C1265.7 93 1332.3 86 1365.7 82.5L1399 79L1399 0L1365.7 0C1332.3 0 1265.7 0 1199 0C1132.3 0 1065.7 0 999 0C932.3 0 865.7 0 799.2 0C732.7 0 666.3 0 599.8 0C533.3 0 466.7 0 400 0C333.3 0 266.7 0 200 0C133.3 0 66.7 0 33.3 0L0 0Z" fill="#183d3d"></path></svg>