<svg id="visual" viewBox="0 0 900 600" width="900" height="600" xmlns="http://www.w3.org/2000/svg" xmlns:xlink="http://www.w3.org/1999/xlink" version="1.1"><rect x="0" y="0" width="900" height="600" fill="#040D12"></rect><path d="M0 221L21.5 210.8C43 200.7 86 180.3 128.8 174.7C171.7 169 214.3 178 257.2 184.7C300 191.3 343 195.7 385.8 191.2C428.7 186.7 471.3 173.3 514.2 173.3C557 173.3 600 186.7 642.8 193.2C685.7 199.7 728.3 199.3 771.2 201.7C814 204 857 209 878.5 211.5L900 214L900 0L878.5 0C857 0 814 0 771.2 0C728.3 0 685.7 0 642.8 0C600 0 557 0 514.2 0C471.3 0 428.7 0 385.8 0C343 0 300 0 257.2 0C214.3 0 171.7 0 128.8 0C86 0 43 0 21.5 0L0 0Z" fill="#183d3d"></path><path d="M0 172L21.5 175C43 178 86 184 128.8 184C171.7 184 214.3 178 257.2 180.5C300 183 343 194 385.8 196C428.7 198 471.3 191 514.2 184C557 177 600 170 642.8 164.7C685.7 159.3 728.3 155.7 771.2 150.5C814 145.3 857 138.7 878.5 135.3L900 132L900 0L878.5 0C857 0 814 0 771.2 0C728.3 0 685.7 0 642.8 0C600 0 557 0 514.2 0C471.3 0 428.7 0 385.8 0C343 0 300 0 257.2 0C214.3 0 171.7 0 128.8 0C86 0 43 0 21.5 0L0 0Z" fill="#143134"></path><path d="M0 161L21.5 156C43 151 86 141 128.8 129C171.7 117 214.3 103 257.2 102.5C300 102 343 115 385.8 122.7C428.7 130.3 471.3 132.7 514.2 135.5C557 138.3 600 141.7 642.8 136.2C685.7 130.7 728.3 116.3 771.2 111C814 105.7 857 109.3 878.5 111.2L900 113L900 0L878.5 0C857 0 814 0 771.2 0C728.3 0 685.7 0 642.8 0C600 0 557 0 514.2 0C471.3 0 428.7 0 385.8 0C343 0 300 0 257.2 0C214.3 0 171.7 0 128.8 0C86 0 43 0 21.5 0L0 0Z" fill="#11252a"></path><path d="M0 79L21.5 76.8C43 74.7 86 70.3 128.8 67.3C171.7 64.3 214.3 62.7 257.2 70C300 77.3 343 93.7 385.8 94C428.7 94.3 471.3 78.7 514.2 70.3C557 62 600 61 642.8 61.2C685.7 61.3 728.3 62.7 771.2 65.8C814 69 857 74 878.5 76.5L900 79L900 0L878.5 0C857 0 814 0 771.2 0C728.3 0 685.7 0 642.8 0C600 0 557 0 514.2 0C471.3 0 428.7 0 385.8 0C343 0 300 0 257.2 0C214.3 0 171.7 0 128.8 0C86 0 43 0 21.5 0L0 0Z" fill="#0e1a1f"></path><path d="M0 55L21.5 55.5C43 56 86 57 128.8 57.5C171.7 58 214.3 58 257.2 56.5C300 55 343 52 385.8 52.3C428.7 52.7 471.3 56.3 514.2 57C557 57.7 600 55.3 642.8 57.7C685.7 60 728.3 67 771.2 69.8C814 72.7 857 71.3 878.5 70.7L900 70L900 0L878.5 0C857 0 814 0 771.2 0C728.3 0 685.7 0 642.8 0C600 0 557 0 514.2 0C471.3 0 428.7 0 385.8 0C343 0 300 0 257.2 0C214.3 0 171.7 0 128.8 0C86 0 43 0 21.5 0L0 0Z" fill="#040d12"></path></svg>